<svg xmlns="http://www.w3.org/2000/svg" xmlns:xlink="http://www.w3.org/1999/xlink" width="1080" zoomAndPan="magnify" viewBox="0 0 810 540.000001" height="720" preserveAspectRatio="xMidYMid meet" version="1.0"><defs><g/></defs><g fill="#1a4d2e" fill-opacity="1"><g transform="translate(206.106905, 301.582552)"><g><path d="M 4.046875 -6.28125 L 10.546875 -6.28125 L 10.546875 -21.90625 L 4.046875 -21.90625 L 4.046875 -28.1875 L 18.625 -28.1875 L 18.625 -20.21875 L 19.015625 -20.21875 C 19.265625 -21.226562 19.613281 -22.21875 20.0625 -23.1875 C 20.519531 -24.15625 21.101562 -25.007812 21.8125 -25.75 C 22.53125 -26.5 23.398438 -27.09375 24.421875 -27.53125 C 25.441406 -27.96875 26.640625 -28.1875 28.015625 -28.1875 L 30.703125 -28.1875 L 30.703125 -20.75 L 24.6875 -20.75 C 22.6875 -20.75 21.175781 -20.15625 20.15625 -18.96875 C 19.132812 -17.789062 18.625 -16.347656 18.625 -14.640625 L 18.625 -6.28125 L 27.90625 -6.28125 L 27.90625 0 L 4.046875 0 Z M 4.046875 -6.28125 "/></g></g></g><g fill="#1a4d2e" fill-opacity="1"><g transform="translate(238.882135, 301.582552)"><g><path d="M 26.609375 0 C 24.929688 0 23.582031 -0.425781 22.5625 -1.28125 C 21.539062 -2.132812 20.9375 -3.363281 20.75 -4.96875 L 20.484375 -4.96875 C 19.972656 -3.113281 18.960938 -1.710938 17.453125 -0.765625 C 15.941406 0.179688 14.09375 0.65625 11.90625 0.65625 C 9.175781 0.65625 6.984375 -0.078125 5.328125 -1.546875 C 3.671875 -3.023438 2.84375 -5.09375 2.84375 -7.75 C 2.84375 -10.707031 3.914062 -12.894531 6.0625 -14.3125 C 8.207031 -15.726562 11.359375 -16.4375 15.515625 -16.4375 L 20.046875 -16.4375 L 20.046875 -17.859375 C 20.046875 -19.535156 19.65625 -20.800781 18.875 -21.65625 C 18.09375 -22.507812 16.769531 -22.9375 14.90625 -22.9375 C 13.195312 -22.9375 11.8125 -22.609375 10.75 -21.953125 C 9.695312 -21.296875 8.789062 -20.441406 8.03125 -19.390625 L 3.609375 -23.328125 C 4.554688 -24.929688 6.039062 -26.25 8.0625 -27.28125 C 10.082031 -28.320312 12.675781 -28.84375 15.84375 -28.84375 C 19.695312 -28.84375 22.707031 -27.957031 24.875 -26.1875 C 27.039062 -24.425781 28.125 -21.757812 28.125 -18.1875 L 28.125 -5.84375 L 31.25 -5.84375 L 31.25 0 Z M 14.96875 -4.640625 C 16.382812 -4.640625 17.582031 -4.984375 18.5625 -5.671875 C 19.550781 -6.367188 20.046875 -7.375 20.046875 -8.6875 L 20.046875 -12.078125 L 15.734375 -12.078125 C 12.421875 -12.078125 10.765625 -10.960938 10.765625 -8.734375 L 10.765625 -7.640625 C 10.765625 -6.660156 11.144531 -5.914062 11.90625 -5.40625 C 12.675781 -4.894531 13.695312 -4.640625 14.96875 -4.640625 Z M 14.96875 -4.640625 "/></g></g></g><g fill="#1a4d2e" fill-opacity="1"><g transform="translate(271.657365, 301.582552)"><g><path d="M 17.53125 0.65625 C 15.3125 0.65625 13.316406 0.320312 11.546875 -0.34375 C 9.785156 -1.019531 8.296875 -1.992188 7.078125 -3.265625 C 5.859375 -4.546875 4.921875 -6.097656 4.265625 -7.921875 C 3.609375 -9.742188 3.28125 -11.800781 3.28125 -14.09375 C 3.28125 -16.382812 3.609375 -18.441406 4.265625 -20.265625 C 4.921875 -22.085938 5.859375 -23.632812 7.078125 -24.90625 C 8.296875 -26.1875 9.785156 -27.160156 11.546875 -27.828125 C 13.316406 -28.503906 15.296875 -28.84375 17.484375 -28.84375 C 20.578125 -28.84375 23.0625 -28.210938 24.9375 -26.953125 C 26.8125 -25.703125 28.238281 -24.035156 29.21875 -21.953125 L 23 -18.578125 C 22.488281 -19.671875 21.820312 -20.578125 21 -21.296875 C 20.1875 -22.023438 19.015625 -22.390625 17.484375 -22.390625 C 15.617188 -22.390625 14.1875 -21.851562 13.1875 -20.78125 C 12.1875 -19.707031 11.6875 -18.242188 11.6875 -16.390625 L 11.6875 -11.796875 C 11.6875 -9.941406 12.1875 -8.476562 13.1875 -7.40625 C 14.1875 -6.332031 15.65625 -5.796875 17.59375 -5.796875 C 19.15625 -5.796875 20.378906 -6.15625 21.265625 -6.875 C 22.160156 -7.601562 22.921875 -8.550781 23.546875 -9.71875 L 29.65625 -6.234375 C 28.632812 -4.148438 27.148438 -2.476562 25.203125 -1.21875 C 23.253906 0.03125 20.695312 0.65625 17.53125 0.65625 Z M 17.53125 0.65625 "/></g></g></g><g fill="#1a4d2e" fill-opacity="1"><g transform="translate(304.432595, 301.582552)"><g><path d="M 3.546875 -40.421875 L 11.640625 -40.421875 L 11.640625 -17.484375 L 12.015625 -17.484375 L 15.78125 -21.90625 L 21.6875 -28.1875 L 30.96875 -28.1875 L 20.046875 -17.046875 L 32.125 0 L 22.5 0 L 14.3125 -12.453125 L 11.640625 -9.78125 L 11.640625 0 L 3.546875 0 Z M 3.546875 -40.421875 "/></g></g></g><g fill="#1a4d2e" fill-opacity="1"><g transform="translate(105.787595, 307.468191)"><g><path d="M 24.125 -2.40625 C 24.125 -1.015625 25.140625 0 26.546875 0 L 82.546875 0 C 84.0625 0 85.078125 -1.015625 85.078125 -2.546875 L 85.078125 -5.078125 C 85.078125 -6.609375 86.09375 -7.625 87.625 -7.625 L 90.15625 -7.625 C 91.6875 -7.625 92.703125 -8.640625 92.703125 -10.15625 L 92.703125 -31.75 C 92.703125 -33.265625 91.6875 -34.28125 90.15625 -34.28125 L 60.953125 -34.28125 C 59.421875 -34.28125 58.40625 -33.265625 58.40625 -31.75 L 58.40625 -10.03125 C 58.40625 -8.640625 57.390625 -7.625 56 -7.625 L 53.203125 -7.625 C 51.8125 -7.625 50.796875 -8.640625 50.796875 -10.03125 L 50.796875 -12.828125 C 50.796875 -14.21875 49.78125 -15.234375 48.375 -15.234375 L 45.59375 -15.234375 C 44.1875 -15.234375 43.171875 -16.25 43.171875 -17.65625 L 43.171875 -101.203125 C 43.171875 -102.609375 44.1875 -103.625 45.59375 -103.625 L 48.375 -103.625 C 49.78125 -103.625 50.796875 -104.640625 50.796875 -106.03125 L 50.796875 -108.828125 C 50.796875 -110.21875 51.8125 -111.234375 53.203125 -111.234375 L 56 -111.234375 C 57.390625 -111.234375 58.40625 -110.21875 58.40625 -108.828125 L 58.40625 -94.734375 C 58.40625 -93.203125 59.421875 -92.1875 60.953125 -92.1875 L 63.625 -92.1875 C 65.015625 -92.1875 66.03125 -91.171875 66.03125 -89.78125 L 66.03125 -87.109375 C 66.03125 -85.59375 67.046875 -84.578125 68.578125 -84.578125 L 90.15625 -84.578125 C 91.6875 -84.578125 92.703125 -85.59375 92.703125 -87.109375 L 92.703125 -108.703125 C 92.703125 -110.21875 91.6875 -111.234375 90.15625 -111.234375 L 85.71875 -111.234375 C 84.1875 -111.234375 83.171875 -112.25 83.171875 -113.78125 L 83.171875 -116.3125 C 83.171875 -117.84375 82.15625 -118.859375 80.640625 -118.859375 L 26.546875 -118.859375 C 25.140625 -118.859375 24.125 -117.84375 24.125 -116.4375 L 24.125 -113.65625 C 24.125 -112.25 23.109375 -111.234375 21.71875 -111.234375 L 18.921875 -111.234375 C 17.53125 -111.234375 16.515625 -110.21875 16.515625 -108.828125 L 16.515625 -106.03125 C 16.515625 -104.640625 15.484375 -103.625 14.09375 -103.625 L 11.296875 -103.625 C 9.90625 -103.625 8.890625 -102.609375 8.890625 -101.203125 L 8.890625 -17.65625 C 8.890625 -16.25 9.90625 -15.234375 11.296875 -15.234375 L 14.09375 -15.234375 C 15.484375 -15.234375 16.515625 -14.21875 16.515625 -12.828125 L 16.515625 -10.03125 C 16.515625 -8.640625 17.53125 -7.625 18.921875 -7.625 L 21.71875 -7.625 C 23.109375 -7.625 24.125 -6.609375 24.125 -5.203125 Z M 24.125 -2.40625 "/></g></g></g><g fill="#000000" fill-opacity="1"><g transform="translate(369.415744, 305.730178)"><g><path d="M 8.890625 -2.40625 C 8.890625 -1.015625 9.90625 0 11.296875 0 L 40.765625 0 C 42.15625 0 43.171875 -1.015625 43.171875 -2.40625 L 43.171875 -35.171875 C 43.171875 -36.578125 44.1875 -37.59375 45.59375 -37.59375 L 48.375 -37.59375 C 49.78125 -37.59375 50.796875 -38.609375 50.796875 -40 L 50.796875 -42.796875 C 50.796875 -44.1875 51.8125 -45.203125 53.203125 -45.203125 L 56 -45.203125 C 57.390625 -45.203125 58.40625 -44.1875 58.40625 -42.796875 L 58.40625 -2.40625 C 58.40625 -1.015625 59.421875 0 60.828125 0 L 90.28125 0 C 91.6875 0 92.703125 -1.015625 92.703125 -2.40625 L 92.703125 -108.828125 C 92.703125 -110.21875 91.6875 -111.234375 90.28125 -111.234375 L 87.5 -111.234375 C 86.09375 -111.234375 85.078125 -112.25 85.078125 -113.65625 L 85.078125 -116.4375 C 85.078125 -117.84375 84.0625 -118.859375 82.671875 -118.859375 L 41.65625 -118.859375 C 40.25 -118.859375 39.234375 -117.84375 39.234375 -116.4375 L 39.234375 -113.65625 C 39.234375 -112.25 38.21875 -111.234375 36.828125 -111.234375 L 35.5625 -111.234375 C 34.15625 -111.234375 33.140625 -110.21875 33.140625 -108.828125 L 33.140625 -106.03125 C 33.140625 -104.640625 32.125 -103.625 30.734375 -103.625 L 27.9375 -103.625 C 26.546875 -103.625 25.53125 -102.609375 25.53125 -101.203125 L 25.53125 -98.40625 C 25.53125 -97.015625 24.515625 -96 23.109375 -96 L 20.3125 -96 C 18.921875 -96 17.90625 -94.984375 17.90625 -93.59375 L 17.90625 -90.796875 C 17.90625 -89.390625 16.890625 -88.375 15.484375 -88.375 L 11.296875 -88.375 C 9.90625 -88.375 8.890625 -87.359375 8.890625 -85.96875 Z M 45.59375 -52.0625 C 44.1875 -52.0625 43.171875 -53.078125 43.171875 -54.46875 L 43.171875 -101.203125 C 43.171875 -102.609375 44.1875 -103.625 45.59375 -103.625 L 48.375 -103.625 C 49.78125 -103.625 50.796875 -104.640625 50.796875 -106.03125 L 50.796875 -108.828125 C 50.796875 -110.21875 51.8125 -111.234375 53.203125 -111.234375 L 56 -111.234375 C 57.390625 -111.234375 58.40625 -110.21875 58.40625 -108.828125 L 58.40625 -62.09375 C 58.40625 -60.703125 57.390625 -59.6875 56 -59.6875 L 53.203125 -59.6875 C 51.8125 -59.6875 50.796875 -58.671875 50.796875 -57.265625 L 50.796875 -54.46875 C 50.796875 -53.078125 49.78125 -52.0625 48.375 -52.0625 Z M 45.59375 -52.0625 "/></g></g></g><g fill="#1a4d2e" fill-opacity="1"><g transform="translate(503.213183, 305.730178)"><g><path d="M 24.125 -2.40625 C 24.125 -1.015625 25.140625 0 26.546875 0 L 82.546875 0 C 84.0625 0 85.078125 -1.015625 85.078125 -2.546875 L 85.078125 -5.078125 C 85.078125 -6.609375 86.09375 -7.625 87.625 -7.625 L 90.15625 -7.625 C 91.6875 -7.625 92.703125 -8.640625 92.703125 -10.15625 L 92.703125 -31.75 C 92.703125 -33.265625 91.6875 -34.28125 90.15625 -34.28125 L 60.953125 -34.28125 C 59.421875 -34.28125 58.40625 -33.265625 58.40625 -31.75 L 58.40625 -10.03125 C 58.40625 -8.640625 57.390625 -7.625 56 -7.625 L 53.203125 -7.625 C 51.8125 -7.625 50.796875 -8.640625 50.796875 -10.03125 L 50.796875 -12.828125 C 50.796875 -14.21875 49.78125 -15.234375 48.375 -15.234375 L 45.59375 -15.234375 C 44.1875 -15.234375 43.171875 -16.25 43.171875 -17.65625 L 43.171875 -101.203125 C 43.171875 -102.609375 44.1875 -103.625 45.59375 -103.625 L 48.375 -103.625 C 49.78125 -103.625 50.796875 -104.640625 50.796875 -106.03125 L 50.796875 -108.828125 C 50.796875 -110.21875 51.8125 -111.234375 53.203125 -111.234375 L 56 -111.234375 C 57.390625 -111.234375 58.40625 -110.21875 58.40625 -108.828125 L 58.40625 -94.734375 C 58.40625 -93.203125 59.421875 -92.1875 60.953125 -92.1875 L 63.625 -92.1875 C 65.015625 -92.1875 66.03125 -91.171875 66.03125 -89.78125 L 66.03125 -87.109375 C 66.03125 -85.59375 67.046875 -84.578125 68.578125 -84.578125 L 90.15625 -84.578125 C 91.6875 -84.578125 92.703125 -85.59375 92.703125 -87.109375 L 92.703125 -108.703125 C 92.703125 -110.21875 91.6875 -111.234375 90.15625 -111.234375 L 85.71875 -111.234375 C 84.1875 -111.234375 83.171875 -112.25 83.171875 -113.78125 L 83.171875 -116.3125 C 83.171875 -117.84375 82.15625 -118.859375 80.640625 -118.859375 L 26.546875 -118.859375 C 25.140625 -118.859375 24.125 -117.84375 24.125 -116.4375 L 24.125 -113.65625 C 24.125 -112.25 23.109375 -111.234375 21.71875 -111.234375 L 18.921875 -111.234375 C 17.53125 -111.234375 16.515625 -110.21875 16.515625 -108.828125 L 16.515625 -106.03125 C 16.515625 -104.640625 15.484375 -103.625 14.09375 -103.625 L 11.296875 -103.625 C 9.90625 -103.625 8.890625 -102.609375 8.890625 -101.203125 L 8.890625 -17.65625 C 8.890625 -16.25 9.90625 -15.234375 11.296875 -15.234375 L 14.09375 -15.234375 C 15.484375 -15.234375 16.515625 -14.21875 16.515625 -12.828125 L 16.515625 -10.03125 C 16.515625 -8.640625 17.53125 -7.625 18.921875 -7.625 L 21.71875 -7.625 C 23.109375 -7.625 24.125 -6.609375 24.125 -5.203125 Z M 24.125 -2.40625 "/></g></g></g><g fill="#1a4d2e" fill-opacity="1"><g transform="translate(605.876765, 301.582523)"><g><path d="M 16.390625 0.65625 C 14.203125 0.65625 12.234375 0.320312 10.484375 -0.34375 C 8.734375 -1.019531 7.25 -1.992188 6.03125 -3.265625 C 4.8125 -4.546875 3.875 -6.097656 3.21875 -7.921875 C 2.5625 -9.742188 2.234375 -11.800781 2.234375 -14.09375 C 2.234375 -16.382812 2.5625 -18.441406 3.21875 -20.265625 C 3.875 -22.085938 4.8125 -23.632812 6.03125 -24.90625 C 7.25 -26.1875 8.734375 -27.160156 10.484375 -27.828125 C 12.234375 -28.503906 14.203125 -28.84375 16.390625 -28.84375 C 18.578125 -28.84375 20.539062 -28.503906 22.28125 -27.828125 C 24.03125 -27.160156 25.515625 -26.1875 26.734375 -24.90625 C 27.953125 -23.632812 28.890625 -22.085938 29.546875 -20.265625 C 30.203125 -18.441406 30.53125 -16.382812 30.53125 -14.09375 C 30.53125 -11.800781 30.203125 -9.742188 29.546875 -7.921875 C 28.890625 -6.097656 27.953125 -4.546875 26.734375 -3.265625 C 25.515625 -1.992188 24.03125 -1.019531 22.28125 -0.34375 C 20.539062 0.320312 18.578125 0.65625 16.390625 0.65625 Z M 16.390625 -5.359375 C 18.210938 -5.359375 19.628906 -5.921875 20.640625 -7.046875 C 21.660156 -8.171875 22.171875 -9.773438 22.171875 -11.859375 L 22.171875 -16.328125 C 22.171875 -18.410156 21.660156 -20.015625 20.640625 -21.140625 C 19.628906 -22.265625 18.210938 -22.828125 16.390625 -22.828125 C 14.566406 -22.828125 13.144531 -22.265625 12.125 -21.140625 C 11.101562 -20.015625 10.59375 -18.410156 10.59375 -16.328125 L 10.59375 -11.859375 C 10.59375 -9.773438 11.101562 -8.171875 12.125 -7.046875 C 13.144531 -5.921875 14.566406 -5.359375 16.390625 -5.359375 Z M 16.390625 -5.359375 "/></g></g></g><g fill="#1a4d2e" fill-opacity="1"><g transform="translate(638.651995, 301.582523)"><g><path d="M 21.46875 -5.140625 L 21.078125 -5.140625 C 20.359375 -3.421875 19.347656 -2.023438 18.046875 -0.953125 C 16.753906 0.117188 14.984375 0.65625 12.734375 0.65625 C 11.160156 0.65625 9.726562 0.363281 8.4375 -0.21875 C 7.144531 -0.800781 6.035156 -1.691406 5.109375 -2.890625 C 4.179688 -4.097656 3.453125 -5.628906 2.921875 -7.484375 C 2.390625 -9.335938 2.125 -11.539062 2.125 -14.09375 C 2.125 -16.644531 2.390625 -18.847656 2.921875 -20.703125 C 3.453125 -22.554688 4.179688 -24.082031 5.109375 -25.28125 C 6.035156 -26.488281 7.144531 -27.382812 8.4375 -27.96875 C 9.726562 -28.550781 11.160156 -28.84375 12.734375 -28.84375 C 13.859375 -28.84375 14.859375 -28.695312 15.734375 -28.40625 C 16.609375 -28.113281 17.378906 -27.710938 18.046875 -27.203125 C 18.722656 -26.691406 19.304688 -26.082031 19.796875 -25.375 C 20.285156 -24.664062 20.710938 -23.890625 21.078125 -23.046875 L 21.46875 -23.046875 L 21.46875 -40.421875 L 29.546875 -40.421875 L 29.546875 0 L 21.46875 0 Z M 16.21875 -5.625 C 17.644531 -5.625 18.875 -5.96875 19.90625 -6.65625 C 20.945312 -7.351562 21.46875 -8.445312 21.46875 -9.9375 L 21.46875 -18.25 C 21.46875 -19.738281 20.945312 -20.828125 19.90625 -21.515625 C 18.875 -22.210938 17.644531 -22.5625 16.21875 -22.5625 C 14.40625 -22.5625 13.003906 -22.003906 12.015625 -20.890625 C 11.035156 -19.785156 10.546875 -18.25 10.546875 -16.28125 L 10.546875 -11.90625 C 10.546875 -9.9375 11.035156 -8.394531 12.015625 -7.28125 C 13.003906 -6.175781 14.40625 -5.625 16.21875 -5.625 Z M 16.21875 -5.625 "/></g></g></g><g fill="#1a4d2e" fill-opacity="1"><g transform="translate(671.427225, 301.582523)"><g><path d="M 17.15625 0.65625 C 12.414062 0.65625 8.828125 -0.648438 6.390625 -3.265625 C 3.953125 -5.890625 2.734375 -9.460938 2.734375 -13.984375 C 2.734375 -16.273438 3.050781 -18.335938 3.6875 -20.171875 C 4.320312 -22.015625 5.226562 -23.582031 6.40625 -24.875 C 7.59375 -26.175781 9.035156 -27.160156 10.734375 -27.828125 C 12.429688 -28.503906 14.332031 -28.84375 16.4375 -28.84375 C 18.550781 -28.84375 20.445312 -28.503906 22.125 -27.828125 C 23.800781 -27.160156 25.21875 -26.207031 26.375 -24.96875 C 27.539062 -23.726562 28.441406 -22.222656 29.078125 -20.453125 C 29.722656 -18.691406 30.046875 -16.71875 30.046875 -14.53125 L 30.046875 -12.125 L 10.765625 -12.125 L 10.765625 -11.640625 C 10.765625 -9.816406 11.328125 -8.347656 12.453125 -7.234375 C 13.578125 -6.128906 15.234375 -5.578125 17.421875 -5.578125 C 19.097656 -5.578125 20.535156 -5.894531 21.734375 -6.53125 C 22.941406 -7.164062 23.984375 -8.007812 24.859375 -9.0625 L 29.21875 -4.3125 C 28.125 -2.96875 26.59375 -1.800781 24.625 -0.8125 C 22.664062 0.164062 20.175781 0.65625 17.15625 0.65625 Z M 16.5 -23.046875 C 14.75 -23.046875 13.351562 -22.507812 12.3125 -21.4375 C 11.28125 -20.363281 10.765625 -18.914062 10.765625 -17.09375 L 10.765625 -16.65625 L 22.125 -16.65625 L 22.125 -17.09375 C 22.125 -18.957031 21.625 -20.414062 20.625 -21.46875 C 19.625 -22.519531 18.25 -23.046875 16.5 -23.046875 Z M 16.5 -23.046875 "/></g></g></g></svg>